#!OML:ASF C:\Vicon Data\Big\jianyuan-13\jianyuan\Session 1\Capture.male.ASF
:FULLY-SPECIFIED
:DEGREES
139
root -7.728719 17.425566 -7.227435 11.576662 -1.412618 1.954061
lowerback -15.114472 4.185112 -2.845426 
upperback -0.061489 6.216072 -1.828394 
thorax 8.305101 2.926190 1.003023 
lowerneck -2.384205 -3.022815 2.416413 
upperneck 0.828254 -4.055540 -3.557558 
head 0.528191 -2.051161 -1.549874 
rclavicle 0.000000 0.000000 
rhumerus -29.728608 -10.100471 -88.169945 
rradius 38.471363 
rwrist 20.384628 
rhand -17.645821 -18.136624 
rfingers 0.000000 
rthumb 8.612152 -47.940991 
lclavicle 0.000000 0.000000 
lhumerus -63.095521 40.370337 41.711009 
lradius 23.759969 
lwrist -62.567378 
lhand -20.403812 1.204877 
lfingers 0.000000 
lthumb 5.949954 31.101294 
rfemur 0.425899 -2.156028 16.253062 
rtibia 46.282603 
rfoot 5.514195 1.550188 
rtoes -41.663082 
lfemur -38.578495 -1.733268 -22.924022 
ltibia 30.699080 
lfoot -3.836508 6.348743 
ltoes -17.615757 
140
root -7.685143 17.440559 -7.070896 11.597977 -1.182022 2.124790
lowerback -14.934278 4.048989 -2.925840 
upperback -0.107578 6.038834 -1.816725 
thorax 8.148818 2.842156 1.005723 
lowerneck -2.386388 -2.943696 2.423267 
upperneck 0.776821 -3.950689 -3.615053 
head 0.514791 -1.999083 -1.567889 
rclavicle 0.000000 0.000000 
rhumerus -30.432323 -10.557080 -87.818382 
rradius 37.907136 
rwrist 20.663233 
rhand -17.450772 -18.671936 
rfingers 0.000000 
rthumb 8.800364 -48.468486 
lclavicle 0.000000 0.000000 
lhumerus -62.615424 40.579134 42.508849 
lradius 23.850345 
lwrist -62.334831 
lhand -20.834391 1.501048 
lfingers 0.000000 
lthumb 5.534253 31.408781 
rfemur -0.880894 -2.838776 15.830873 
rtibia 48.594481 
rfoot 6.552330 0.818304 
rtoes -42.181041 
lfemur -38.116736 -2.108506 -23.261730 
ltibia 30.897642 
lfoot -4.094564 6.157903 
ltoes -17.584669 
141
root -7.644011 17.459365 -6.920218 11.562234 -1.019165 2.343536
lowerback -14.670806 3.939047 -3.075313 
upperback -0.128616 5.906806 -1.823977 
thorax 7.967323 2.778360 1.031546 
lowerneck -2.249842 -2.853233 2.378139 
upperneck 0.524317 -3.832878 -3.559144 
head 0.418982 -1.937834 -1.535016 
rclavicle 0.000000 0.000000 
rhumerus -31.061272 -11.508250 -87.277982 
rradius 37.065540 
rwrist 21.345413 
rhand -17.378704 -18.332865 
rfingers 0.000000 
rthumb 8.869909 -48.126504 
lclavicle 0.000000 0.000000 
lhumerus -61.713763 40.545971 43.793369 
lradius 23.963488 
lwrist -61.489688 
lhand -20.717855 1.633298 
lfingers 0.000000 
lthumb 5.646776 31.538029 
rfemur -2.242422 -3.421968 15.389972 
rtibia 50.987670 
rfoot 7.305601 -0.373114 
rtoes -42.667349 
lfemur -37.591937 -2.398450 -23.654709 
ltibia 31.080643 
lfoot -4.433770 5.931168 
ltoes -17.696443 
142
root -7.605570 17.475999 -6.763521 11.552457 -1.058330 2.416909
lowerback -14.610116 3.916221 -3.080721 
upperback -0.078989 5.875343 -1.803890 
thorax 7.985089 2.761874 1.046812 
lowerneck -2.482221 -2.824096 2.436212 
upperneck 0.543282 -3.798196 -3.650924 
head 0.462602 -1.923204 -1.579068 
rclavicle 0.000000 0.000000 
rhumerus -31.682201 -12.040745 -86.897685 
rradius 36.478763 
rwrist 21.994755 
rhand -17.597135 -18.832268 
rfingers 0.000000 
rthumb 8.659107 -48.634705 
lclavicle 0.000000 0.000000 
lhumerus -60.729442 40.608928 45.134403 
lradius 24.079393 
lwrist -61.262091 
lhand -20.863527 1.952930 
lfingers 0.000000 
lthumb 5.506101 31.861406 
rfemur -3.707275 -3.867052 15.079625 
rtibia 53.487724 
rfoot 7.493878 -1.946898 
rtoes -42.867092 
lfemur -37.058234 -2.490540 -23.912622 
ltibia 31.271605 
lfoot -4.855527 5.705152 
ltoes -17.719785 
143
root -7.565835 17.489093 -6.613190 11.537010 -0.905837 2.563477
lowerback -14.463886 3.822090 -3.142049 
upperback -0.067604 5.752678 -1.778901 
thorax 7.910130 2.701941 1.071464 
lowerneck -2.445896 -2.758967 2.415671 
upperneck 0.384921 -3.713473 -3.691119 
head 0.409771 -1.880306 -1.584825 
rclavicle 0.000000 0.000000 
rhumerus -32.279886 -13.060038 -86.271388 
rradius 35.619768 
rwrist 23.050061 
rhand -17.570826 -18.829402 
rfingers 0.000000 
rthumb 8.684503 -48.630773 
lclavicle 0.000000 0.000000 
lhumerus -59.733109 40.606999 46.517652 
lradius 24.109439 
lwrist -61.075286 
lhand -21.029116 2.186511 
lfingers 0.000000 
lthumb 5.346220 32.099072 
rfemur -5.262745 -4.616151 14.730444 
rtibia 56.157217 
rfoot 7.057725 -3.767449 
rtoes -42.053288 
lfemur -36.542655 -2.692863 -24.235054 
ltibia 31.436459 
lfoot -5.190489 5.448632 
ltoes -18.022419 
144
root -7.529346 17.503568 -6.466779 11.550212 -0.920883 2.690349
lowerback -14.347062 3.748535 -3.217321 
upperback -0.046774 5.661559 -1.759044 
thorax 7.860426 2.655959 1.107778 
lowerneck -2.511795 -2.692672 2.446928 
upperneck 0.266833 -3.629681 -3.721016 
head 0.386023 -1.838758 -1.598945 
rclavicle 0.000000 0.000000 
rhumerus -32.925177 -13.761850 -85.757496 
rradius 34.961595 
rwrist 23.718970 
rhand -17.845478 -18.821768 
rfingers 0.000000 
rthumb 8.419489 -48.633907 
lclavicle 0.000000 0.000000 
lhumerus -58.652294 40.652360 47.903598 
lradius 24.121000 
lwrist -60.823526 
lhand -21.139153 2.197744 
lfingers 0.000000 
lthumb 5.239993 32.112950 
rfemur -6.993396 -5.080847 14.434202 
rtibia 58.995465 
rfoot 6.010004 -5.485973 
rtoes -40.116096 
lfemur -36.051210 -2.720085 -24.542145 
ltibia 31.551050 
lfoot -5.515127 5.144257 
ltoes -18.096139 
145
root -7.488413 17.516348 -6.321038 11.450998 -0.809347 2.811736
lowerback -14.151525 3.655080 -3.194507 
upperback 0.022753 5.527739 -1.755351 
thorax 7.831637 2.592763 1.060828 
lowerneck -2.556202 -2.619652 2.507196 
upperneck 0.159723 -3.537072 -3.771081 
head 0.361591 -1.792755 -1.624251 
rclavicle 0.000000 0.000000 
rhumerus -33.483823 -14.585391 -85.267692 
rradius 34.333879 
rwrist 24.098141 
rhand -18.040602 -19.184847 
rfingers 0.000000 
rthumb 8.231145 -49.004463 
lclavicle 0.000000 0.000000 
lhumerus -57.473188 40.664184 49.335036 
lradius 24.069087 
lwrist -61.107282 
lhand -21.306003 2.261361 
lfingers 0.000000 
lthumb 5.078926 32.180489 
rfemur -8.632485 -5.662412 14.156693 
rtibia 61.845949 
rfoot 4.662665 -6.910558 
rtoes -38.324515 
lfemur -35.401274 -2.836728 -24.852651 
ltibia 31.600629 
lfoot -5.808176 4.864362 
ltoes -18.937901 
146
root -7.454247 17.536258 -6.174805 11.425110 -0.891651 2.885303
lowerback -14.053162 3.593187 -3.255161 
upperback 0.068642 5.447842 -1.693544 
thorax 7.816383 2.550663 1.138602 
lowerneck -2.559605 -2.533878 2.486726 
upperneck 0.027173 -3.425097 -3.806817 
head 0.324598 -1.736561 -1.629746 
rclavicle 0.000000 0.000000 
rhumerus -34.078400 -15.014354 -84.807979 
rradius 33.757832 
rwrist 24.503994 
rhand -18.126874 -19.349594 
rfingers 0.000000 
rthumb 8.147889 -49.172448 
lclavicle 0.000000 0.000000 
lhumerus -55.969128 40.477645 51.227340 
lradius 24.201009 
lwrist -59.307215 
lhand -20.494576 1.809376 
lfingers 0.000000 
lthumb 5.862320 31.708087 
rfemur -10.575358 -6.284392 13.926408 
rtibia 64.639587 
rfoot 3.730411 -7.800683 
rtoes -37.265767 
lfemur -34.781617 -2.665257 -25.137712 
ltibia 31.554178 
lfoot -6.116638 4.536131 
ltoes -19.145545 
147
root -7.427807 17.549641 -6.073200 11.377683 -0.970936 2.916757
lowerback -13.941237 3.551611 -3.231009 
upperback 0.097652 5.381410 -1.651790 
thorax 7.784827 2.519434 1.149424 
lowerneck -2.587987 -2.469441 2.496407 
upperneck -0.012353 -3.340772 -3.827039 
head 0.319527 -1.694658 -1.637373 
rclavicle 0.000000 0.000000 
rhumerus -34.504242 -15.465182 -84.391740 
rradius 33.275740 
rwrist 24.870145 
rhand -18.330142 -19.290300 
rfingers 0.000000 
rthumb 7.951691 -49.120687 
lclavicle 0.000000 0.000000 
lhumerus -55.304465 40.667172 52.019824 
lradius 24.119429 
lwrist -59.798668 
lhand -20.821518 1.717647 
lfingers 0.000000 
lthumb 5.546637 31.625059 
rfemur -11.950796 -6.553579 13.817913 
rtibia 66.597927 
rfoot 3.160514 -8.496902 
rtoes -36.856842 
lfemur -34.296588 -2.485589 -25.347064 
ltibia 31.474172 
lfoot -6.322402 4.321649 
ltoes -19.481610 
